# xmcd
# Track frame offsets:
# 150
# 13893
# 29179
# 40618
# 50382
# 61386
# 77925
# 97868
# 113211
# 130996
# 143981
#
# Disc length: 2076 seconds
# Revision: 0
# Processed by: cddbd v1.4PL0 Copyright (c) Steve Scherf et al.
# Submitted via: VisiTrax 2.9.5.180 - For more info visit www.synapsa.com
#
DISCID=97081a0b
DTITLE=Waylon Young - Hard to be
DYEAR=1900
DGENRE=
TTITLE0=Waylon Young - Take me away
TTITLE1=Waylon Young - Mile out of Memphis
TTITLE2=Waylon Young - A law against leavin'
TTITLE3=Waylon Young/Dale Watson - I hope there's a hillbilly heaven
TTITLE4=Waylon Young - Every second
TTITLE5=Waylon Young - Wherever you go
TTITLE6=Waylon Young - Hard to be
TTITLE7=Waylon Young - Walkin' in a hard rain
TTITLE8=Waylon Young - Circus leaving town
TTITLE9=Waylon Young - T.R.O.U.B.L.E
TTITLE10=Waylon Young - Blessed or damned
EXTD=
EXTT0=
EXTT1=
EXTT2=
EXTT3=
EXTT4=
EXTT5=
EXTT6=
EXTT7=
EXTT8=
EXTT9=
EXTT10=
PLAYORDER=
